<?xml version="1.0" standalone="yes"?>
<svg xmlns="http://www.w3.org/2000/svg" width="512" height="512" fill="transparent">
<path style=" stroke:none;" d="M0 0L0 512L512 512L512 0L0 0z"/>
<path style="fill:#882288; stroke:none;" d="M432 132C430.203 132 430.479 132.014 429 133C427.465 115.423 416.068 97.2159 405.079 84C371.854 44.0406 316.353 28 266 28C268.106 27.3562 269.795 27.0941 272 27L272 25C256.344 25 240.56 24.4236 225 26.2855C185.983 30.9543 146.981 45.4315 115 68.4283C101.463 78.1625 89.2026 91.1916 81.3233 106C78.2044 111.862 74.0371 121.5 82.044 125.347C88.3927 128.398 97.6142 126.335 104 124.251C120.996 118.705 136.669 108.534 153 101.309C162.959 96.9023 173.458 93.7615 184 91.1266C192.261 89.0619 200.575 87.7264 209 86.5764C250.573 80.9013 308.785 85.4668 330.191 128C336.879 141.289 338 155.404 338 170C338 203.959 327.911 241.12 297 259.547C275.997 272.068 251.489 270.633 229 278.221C217.508 282.098 217.351 295.574 224.681 303.699C230.717 310.391 240.426 313.514 249 315.196C266.583 318.645 285.214 319.07 303 317.166C364.045 310.63 415.714 262.227 430.525 203C436.528 178.991 435.076 156.214 432 132z"/>
<path style="fill:#821885; stroke:none;" d="M272 25C269.943 26.582 268.613 26.8256 266 27C272.418 29.6932 281.992 28.4803 289 29.1698C300.071 30.2589 311.189 32.6757 322 35.2346C359.033 43.9998 395.071 66.1756 415.189 99C421.411 109.151 427.244 121.113 429 133C432.032 128.835 429.576 123.486 427.946 119C423.486 106.727 417.096 95.3083 409.112 85C387.197 56.7072 352.421 39.0272 318 31.4244C302.726 28.0508 287.227 27.8268 272 25z"/>
<path style="fill:#882288; stroke:none;" d="M209.996 112.769C200.261 112.089 191.572 118.613 185 125.015C171.014 138.636 161.421 154.664 152.753 172C132.75 212.006 119.452 255.699 108.627 299C100.778 330.395 93.1861 362.625 90.9753 395C89.4209 417.763 88.1213 440.24 90.8449 463C92.1945 474.278 94.5424 486.133 108 487.815C114.63 488.643 121.414 487.807 128 487.17C144.606 485.563 166.389 483.427 176.451 467.996C182.434 458.823 181.58 447.492 182.039 437C182.886 417.666 184.192 398.348 185.039 379C185.851 360.464 186.359 341.337 189.435 323C195.562 286.478 205.845 250.671 211.131 214C214.873 188.043 219 163.332 219 137C219 129.811 220.264 113.486 209.996 112.769z"/>
</svg>
